<svg xmlns="http://www.w3.org/2000/svg" width="430.571" height="391.066" viewBox="0 0 430.571 391.066">
    <g opacity="0.02">
        <path d="M407.307 264.1l-44.5-138.711h-11.273V117.8c22.053-5.436 22.43-27.18 22.43-27.18a48.645 48.645 0 0 1-22.43 13.617v-6h-8.8v7.468c-.363.013-.7.108-1.076.121-20.048.484-29.09-32.777-54.319-32.777-23.493 0-49.731 13.98-66.7 15.918V51.118a25.079 25.079 0 1 0-5.638.215v37.353c-16.967-2.678-42.142-15.635-64.8-15.635-25.229 0-34.244 33.262-54.306 32.777a46.467 46.467 0 0 1-4.656-.511v-7.078h-8.8v5.019A47.741 47.741 0 0 1 63.6 90.637s.377 19.255 18.837 26.023v8.733H71.179L25.9 264.116H0s18.582 35.509 85.132 35.509 85.132-35.509 85.132-35.509H147l-44.47-138.711H91.241v-6.674a53.081 53.081 0 0 0 5.638.3c32.791 0 37.675-20.788 55.786-20.788 16.294 0 35.388 20.237 58.921 24.327 1.009.283 5.947-.054 4.467.309l-.767 77.731-14.949 30.275.511 91.2h-41.093v16.133l-33.033 54.319H314.6l-40.366-55.059v-15.42h-35.953v-90.369l-15.138-31.809-.013-77.193c1.359-.013 1.305.283 2.866-.135 23.533-4.09 42.627-24.327 58.921-24.327 18.124 0 23 20.788 55.786 20.788.754 0 1.372-.081 2.045-.108v6.459H331.5l-45.278 138.712h-25.915s18.582 35.509 85.132 35.509 85.132-35.485 85.132-35.485zm-324.866 0H35.172l42.385-129.882h4.884zm13.67-129.9l41.658 129.871H91.241V134.2zm246.637 129.9h-47.282l42.384-129.882h4.884V264.1zm8.8 0V134.2h4.852l41.658 129.871-46.515.027z" transform="translate(0 -1.468)"/>
    </g>
</svg>
