<svg xmlns="http://www.w3.org/2000/svg" id="Сгруппировать_726" width="19.883" height="18.616" viewBox="0 0 19.883 18.616">
    <defs>
        <style>
            .cls-1{fill:#fe0}
        </style>
    </defs>
    <path id="Контур_6344" d="M32 279.148a1.244 1.244 0 0 0 1.243 1.243h6.213v-8.7H32z" class="cls-1" transform="translate(-30.757 -261.774)"/>
    <path id="Контур_6345" d="M18.64 21.255h-3.932a4.828 4.828 0 0 0 .692-.555 2.6 2.6 0 0 0 0-3.656 2.626 2.626 0 0 0-3.645 0c-.539.541-1.968 2.741-1.771 4.211H9.9c.2-1.47-1.233-3.671-1.771-4.211a2.628 2.628 0 0 0-3.645 0 2.6 2.6 0 0 0 0 3.656 4.918 4.918 0 0 0 .695.555H1.243A1.245 1.245 0 0 0 0 22.5v1.864a.622.622 0 0 0 .621.621H8.7V22.5h2.485v2.485h8.077a.622.622 0 0 0 .621-.621V22.5a1.244 1.244 0 0 0-1.243-1.245zm-10.015-.041a.41.41 0 0 1-.23.041 6.111 6.111 0 0 1-3.033-1.432 1.355 1.355 0 0 1 0-1.9 1.325 1.325 0 0 1 1.883 0c.837.839 1.67 2.991 1.38 3.291zm2.861.041c-.176 0-.229-.04-.229-.041-.29-.3.543-2.452 1.381-3.294a1.339 1.339 0 1 1 1.883 1.9 6.11 6.11 0 0 1-3.035 1.435z" class="cls-1" transform="translate(0 -16.308)"/>
    <path id="Контур_6346" d="M288 280.391h6.213a1.243 1.243 0 0 0 1.243-1.243v-7.456H288z" class="cls-1" transform="translate(-276.816 -261.774)"/>
</svg>
