<svg xmlns="http://www.w3.org/2000/svg" width="256.774" height="336.269" viewBox="0 0 256.774 336.269">
    <g fill="#f6f6f6">
        <path d="M260.883 466.768h-98.826v-29.531l2.255-.222.213-.024c.191-.021.408-.046.653-.055.138-.006.285-.008.46-.008l.277.001.237.002c14.974 0 30.201-.004 44.927-.008 14.725-.004 29.952-.008 44.927-.008 28.992 0 52.467.016 73.877.05h.095c14.47 0 26.514-5.172 36.824-15.81 7.25-7.48 12.349-16.778 15.156-27.636 1.371-5.302 2.07-10.744 2.076-16.174.002-1.725.006-3.45.01-5.175.012-5.194.025-10.564-.018-15.84-.106-12.969-3.648-24.879-10.528-35.4-5.342-8.17-12.233-14.503-20.48-18.823-5.19-2.719-10.715-4.42-16.417-5.055-1.628-.181-3.446-.275-5.72-.297-1.88-.017-3.902-.025-6.361-.025-1.614 0-3.256.003-4.843.007l-3.028.005c-4.329.006-8.73.015-12.987.024-1.708.004-3.416.008-5.124.01v117.852H270.188l-.748-.866-.014-.017-.069-.08c-.276-.318-.466-.678-.566-1.072l-.002-.01-.003-.012c-.056-.23-.076-.424-.088-.568-.01-.126-.011-.232-.012-.295v-.048c-.002-.069-.002-.138-.002-.207l-.001-60.898-.002-53.754c-3.019-.05-8.731-.089-14.395-.089-3.471 0-5.999.014-7.609.035V411.537l-.002.102-.001.075v.025c-.002.044-.003.117-.01.205-.004.079-.012.145-.016.181l-.001.008-.005.04v.001c-.015.137-.045.33-.12.556l-.003.01-.004.011c-.084.248-.187.432-.262.554l-.47.808-.918.292c-.427.136-.604.192-5.622.248-2.723.03-6.244.048-9.66.048-9.65 0-10.372-.118-10.644-.162l-2.099-.341V296.779h-17.402l-.559-1.732c-.132-.41-.193-.597-.258-4.67-.034-2.16-.06-5.058-.072-8.162-.01-2.744-.034-11.8.121-13.104l.263-2.204h17.89v-15.551c0-36.726 0-74.702.004-112.052 0-.4.03-.768.058-1.093.011-.132.022-.257.03-.374l.152-2.337H246.859l-.128 2.622c-.007.135-.016.27-.024.404-.014.223-.028.434-.028.612-.002 10.93-.002 22.043-.002 32.79v94.929c1.799.028 4.679.048 8.637.048 5.811 0 10.692-.04 13.37-.091V138.967c0-.203-.004-.412-.008-.633l-.005-.298-.036-2.536H298.446l.048 2.45.01.4c.007.312.015.636.015.97.002 42.517.002 85.035.002 127.554l9.046.008c4.747.004 9.655.01 14.481.01 3.007 0 5.727-.003 8.317-.006h.139c5.552 0 10.985.516 16.147 1.534 5.147 1.015 10.166 2.556 14.917 4.582 4.725 2.014 9.313 4.561 13.638 7.57 4.29 2.986 8.439 6.51 12.33 10.47 5.154 5.248 9.648 11.146 13.356 17.528 3.58 6.163 6.528 12.95 8.761 20.173 2.002 6.477 3.288 13.031 3.82 19.483.216 2.613.322 4.796.333 6.868.023 4.264.02 8.596.018 12.785-.002 3.284-.004 6.68.007 10.019.017 5.694-.573 11.458-1.804 17.621-1.2 6.014-2.947 11.872-5.19 17.41-2.265 5.592-5.097 11.012-8.42 16.11-3.65 5.598-7.8 10.685-12.34 15.12-4.675 4.568-9.897 8.577-15.52 11.914-4.219 2.504-8.65 4.598-13.173 6.223-4.54 1.63-9.295 2.834-14.132 3.576-3.916.6-7.594.892-11.244.893l-23.591.003h-47.534z" transform="translate(-159.557 -133)"/>
        <path d="M219.41 138c-.03.434-.084.869-.084 1.304-.003 42.897-.003 85.795-.003 128.693v1.41h-18.17c-.197 1.65-.115 24.189.105 24.872h18.082v117.793c.553.09 5.152.129 10.241.129 6.669 0 14.178-.068 14.526-.178.014-.025.032-.05.041-.076.01-.028.01-.058.014-.087l.009-.088.003-.087c0-.06.002-.118.003-.177v-116.37-.175c0-.059 0-.118.002-.177l.008-.175c.002-.03.003-.059.01-.087.006-.029.017-.056.029-.083.01-.027.02-.057.037-.078.018-.022.046-.034.07-.05.57-.07 4.918-.101 9.953-.101 7.477 0 16.467.068 16.838.175.01.028.022.055.03.083.008.029.015.057.018.086.005.058.01.117.01.176l.002 116.72.001.177c.001.059 0 .118.005.176.005.059.01.117.025.174.006.027.032.048.05.07.018.023.038.045.067.079h24.706V294.28H297.017c6.542-.013 13.086-.03 19.628-.038 2.625-.003 5.25-.012 7.875-.012 2.128 0 4.257.006 6.385.025 1.993.019 3.994.092 5.973.313 6.096.679 11.865 2.478 17.3 5.324 8.883 4.653 15.947 11.312 21.412 19.67 7.293 11.152 10.828 23.454 10.936 36.748.057 7.013.016 14.025.008 21.038-.007 5.69-.731 11.29-2.155 16.797-2.823 10.918-7.91 20.628-15.782 28.75-10.549 10.885-23.298 16.57-38.618 16.57h-.1c-24.622-.04-49.236-.05-73.859-.05-29.953 0-59.915.016-89.868.016l-.514-.003c-.122 0-.244.001-.366.006-.224.009-.448.042-.715.069v24.765H308.417c7.863 0 15.727-.001 23.59-.003 3.645 0 7.264-.312 10.866-.865 9.419-1.444 18.22-4.617 26.408-9.477 11.105-6.59 20.012-15.465 27.041-26.25 6.53-10.017 10.913-20.92 13.254-32.643 1.128-5.652 1.772-11.352 1.754-17.124-.023-7.6.016-15.2-.024-22.798-.012-2.227-.14-4.457-.324-6.677-.533-6.451-1.806-12.767-3.717-18.949-4.3-13.91-11.288-26.277-21.512-36.687-15.162-15.437-33.53-23.41-55.25-23.41h-.134c-2.774.005-5.547.006-8.32.006-8.289 0-16.578-.014-24.866-.018-.106 0-.212.004-.319.004-.07 0-.14-.002-.209-.007-.193-.016-.385-.052-.634-.088v-1.27c0-42.897 0-85.795-.002-128.693 0-.44-.015-.88-.024-1.32H271.17c.004.323.012.646.012.968v130.247c-.368.12-8.587.19-15.87.19-5.579 0-10.61-.04-11.136-.132v-1.184-89.165c0-13.262 0-26.523.002-39.785 0-.38.036-.76.054-1.138H219.41m-4.684-5h34.759l-.256 5.244-.026.44c-.011.175-.023.356-.023.454-.002 10.93-.002 22.043-.002 32.79V264.385c1.622.012 3.67.02 6.137.02 4.29 0 8.108-.022 10.87-.054V138.967c0-.182-.004-.38-.008-.59l-.005-.306-.072-5.071h34.798l.097 4.901c.002.129.006.257.009.386.008.328.016.668.016 1.032.002 41.685.002 83.37.002 125.056l6.554.007c4.744.004 9.65.01 14.473.01 3.013 0 5.732-.003 8.313-.006h.143c5.714 0 11.31.531 16.63 1.58 5.318 1.05 10.504 2.642 15.414 4.736 4.882 2.08 9.621 4.711 14.086 7.819 4.418 3.074 8.686 6.698 12.686 10.77 5.3 5.396 9.92 11.46 13.733 18.023 3.676 6.326 6.7 13.287 8.989 20.691 2.055 6.649 3.375 13.383 3.923 20.015.221 2.68.33 4.923.341 7.06.023 4.274.02 8.61.018 12.804-.002 3.281-.004 6.674.006 10.006.019 5.863-.587 11.79-1.851 18.119-1.232 6.167-3.023 12.176-5.325 17.86-2.325 5.74-5.232 11.303-8.643 16.535-3.749 5.751-8.017 10.98-12.687 15.543-4.817 4.707-10.197 8.838-15.99 12.276-4.356 2.585-8.933 4.747-13.605 6.425-4.69 1.686-9.602 2.929-14.598 3.695-3.987.61-7.897.921-11.623.922-7.863.002-15.727.003-23.591.003H159.557v-34.297l4.51-.444.175-.02c.212-.024.502-.057.842-.07.169-.006.346-.009.554-.009.099 0 .197 0 .296.002h.218c14.976 0 30.205-.003 44.933-.007 14.728-.004 29.958-.008 44.935-.008 28.975 0 52.447.016 73.867.05h.092c13.756 0 25.214-4.923 35.028-15.049 6.944-7.165 11.833-16.089 14.531-26.523 1.318-5.099 1.99-10.33 1.996-15.551.002-1.728.006-3.455.01-5.182.012-5.186.025-10.548-.018-15.81-.102-12.481-3.507-23.938-10.12-34.051-5.107-7.81-11.683-13.858-19.548-17.978-4.915-2.574-10.141-4.183-15.534-4.784-1.542-.172-3.279-.261-5.466-.282-1.875-.017-3.89-.025-6.338-.025-1.61 0-3.251.003-4.837.007l-3.031.005c-4.328.006-8.729.015-12.985.024l-2.63.006v117.856h-31.993l-1.496-1.732-.006-.007-.086-.1c-.527-.611-.893-1.31-1.088-2.081l-.006-.023-.005-.022c-.1-.407-.134-.744-.151-.962-.017-.21-.019-.38-.02-.462v-.044l-.002-.242-.001-58.36-.002-53.825c-3.033-.032-7.303-.056-11.895-.056-2.097 0-3.778.005-5.109.013V411.57l-.002.107-.001.066v.03l-.001.029c-.002.06-.005.176-.015.321-.009.133-.021.238-.027.288l-.002.023-.002.014-.004.036v.006c-.043.356-.117.692-.227 1.024l-.007.021-.007.021c-.121.358-.279.694-.48 1.026l-.94 1.62-1.84.585c-.77.246-1.435.272-2.866.309-.854.021-2.026.04-3.486.057-2.731.03-6.263.048-9.688.048-9.851 0-10.57-.117-11.044-.194l-4.198-.683V299.28h-16.722l-1.118-3.464c-.231-.716-.273-1.332-.315-2.565-.023-.691-.044-1.645-.063-2.834-.035-2.169-.06-5.078-.073-8.19-.021-5.408-.015-12.125.139-13.411l.526-4.408h17.609v-14.009c0-36.412 0-74.063.003-111.094 0-.505.038-.948.068-1.304.01-.12.02-.233.026-.326l.305-4.674z" transform="translate(-159.557 -133)"/>
    </g>
</svg>
