<svg xmlns="http://www.w3.org/2000/svg" width="304" height="136.857" viewBox="0 0 304 136.857">
    <g fill="#84a1ff">
        <text font-family="ProximaNova-Bold, Proxima Nova" font-size="47px" font-weight="700" transform="translate(-56 -269.499) translate(187 366)">
            <tspan x="0" y="0">BITBON</tspan>
        </text>
        <text font-family="ProximaNova-Regular, Proxima Nova" font-size="27px" transform="translate(-56 -269.499) translate(187 322)">
            <tspan x="0" y="0">токен</tspan>
        </text>
        <g>
            <path d="M204.372 273.357H164.057v-11.19l.451-.044.097-.01c.073-.009.148-.018.229-.02.056-.003.113-.003.17-.003h.212c6.19 0 12.38 0 18.57-.003l18.571-.003c11.982 0 21.684.007 30.534.02h.04c6.132 0 11.236-2.19 15.603-6.696 3.062-3.159 5.214-7.082 6.398-11.66.578-2.236.872-4.53.875-6.819 0-.712.002-1.425.004-2.138.005-2.148.01-4.37-.007-6.553-.045-5.464-1.538-10.484-4.439-14.92-2.258-3.453-5.173-6.132-8.664-7.96-2.204-1.155-4.55-1.877-6.974-2.147-.691-.077-1.46-.117-2.418-.126-.78-.007-1.617-.01-2.635-.01l-2.004.003-1.25.002c-1.799.002-3.599.006-5.398.01l-2.62.005v48.71h-10.941l-.15-.173-.008-.01-.022-.026c-.028-.031-.093-.109-.124-.23-.015-.061-.02-.112-.024-.154-.002-.029-.003-.057-.003-.086V251.105v-.078l-.001-22.853v-25.059c-1.006-.027-3.693-.048-6.485-.048-1.98 0-3.131.01-3.677.023v47.965l-.001.04V251.135l-.003.06-.005.048v.006l-.002.009c-.002.026-.008.074-.027.13-.02.06-.043.1-.062.13l-.094.163-.184.059c-.093.03-.173.055-2.168.077-1.123.013-2.576.02-3.986.02-1.8 0-4.01-.01-4.315-.06l-.42-.068v-48.613h-7.337l-.112-.346c-.027-.085-.092-.284-.11-5.142-.003-.492-.018-4.82.046-5.352l.052-.44h7.454v-7.175c0-15.367 0-30.734.002-46.101 0-.143.011-.277.022-.407.005-.055.01-.11.013-.165l.03-.467h11.255l-.026.524c-.002.053-.006.107-.01.16-.006.1-.012.196-.012.286v53.314c.644.016 1.997.03 4.103.03 2.63 0 5.092-.022 6.06-.05l-.001-53.364-.003-.272-.002-.12-.008-.508H219.374l.01.49.004.167c.003.126.007.257.007.388v53.256c1.424 0 2.847.002 4.27.003 1.996.002 3.992.004 5.987.004 1.147 0 2.293 0 3.44-.002h.056c4.512 0 8.762.836 12.63 2.485 3.828 1.631 7.381 4.101 10.563 7.34 2.099 2.137 3.93 4.54 5.44 7.139 1.46 2.512 2.661 5.28 3.572 8.228.817 2.64 1.34 5.31 1.558 7.939.088 1.066.13 1.955.135 2.798.01 1.76.008 3.55.007 5.28 0 1.359-.001 2.763.003 4.144.007 2.318-.233 4.665-.735 7.177-.984 4.93-2.851 9.53-5.55 13.668-3.015 4.628-6.831 8.33-11.34 11.007-3.437 2.04-7.17 3.38-11.095 3.981-1.591.244-3.085.363-4.566.363l-9.751.002h-19.647z" transform="translate(-56 -269.499) translate(-107.557 132.5)"/>
            <path d="M187.23 138c-.013.18-.035.36-.035.539-.002 17.73-.001 35.462-.001 53.193v.583h-7.51c-.082.681-.048 9.998.043 10.28h7.474v48.687c.228.037 2.13.054 4.234.054 2.756 0 5.859-.028 6.002-.074.006-.01.014-.02.018-.031.003-.012.003-.024.005-.036l.004-.036.001-.037.001-.073V202.95v-.072l.001-.073.004-.073c0-.012 0-.024.003-.036.003-.012.008-.023.012-.034.005-.011.009-.023.016-.033.007-.008.02-.013.029-.02.235-.029 2.032-.042 4.113-.042 3.09 0 6.807.028 6.96.073.005.011.01.022.013.034.003.012.006.023.007.035.002.025.004.049.004.073l.001 48.245v.072c.001.025.001.049.003.073.002.024.004.049.01.072.003.011.013.02.021.03l.028.032h10.211v-48.71H219.307c2.704-.006 5.409-.013 8.113-.016 1.085-.002 2.17-.005 3.254-.005.88 0 1.76.002 2.64.01.823.008 1.65.038 2.469.13 2.52.28 4.904 1.024 7.15 2.2 3.672 1.923 6.592 4.676 8.85 8.13 3.015 4.61 4.476 9.694 4.52 15.19.024 2.898.007 5.796.004 8.695-.003 2.351-.302 4.667-.89 6.943-1.168 4.513-3.27 8.526-6.524 11.883-4.36 4.5-9.63 6.849-15.962 6.849h-.041c-10.179-.016-20.354-.02-30.533-.02-12.379 0-24.762.006-37.14.006l-.213-.001c-.05 0-.101 0-.151.002-.093.004-.185.018-.296.028v10.237h59.462c3.25 0 6.5 0 9.75-.002 1.507 0 3.003-.129 4.492-.357 3.893-.597 7.53-1.908 10.915-3.917 4.59-2.724 8.271-6.392 11.177-10.85 2.699-4.14 4.51-8.647 5.478-13.493.466-2.336.733-4.691.725-7.078-.01-3.14.007-6.282-.01-9.423-.005-.92-.058-1.842-.134-2.76-.22-2.666-.746-5.276-1.536-7.832-1.778-5.749-4.666-10.86-8.892-15.164-6.267-6.38-13.859-9.676-22.836-9.675h-.056l-3.446.002c-3.423 0-6.847-.006-10.27-.008l-.132.002c-.03 0-.058 0-.087-.003-.08-.006-.16-.021-.262-.036v-.525-53.193c0-.181-.007-.363-.01-.545h-10.261c.002.133.005.267.005.4v53.835c-.152.05-3.55.079-6.56.079-2.306 0-4.385-.017-4.602-.055v-.49-36.854-16.445c0-.156.015-.313.023-.47h-10.26m-.938-1h12.247l-.05 1.049-.01.166c-.006.093-.012.181-.012.255v52.824c.74.011 1.943.02 3.603.02 2.427 0 4.46-.017 5.56-.039l-.001-52.875c0-.088-.002-.176-.003-.263l-.002-.123-.015-1.014h12.255l.02.98.004.165c.003.129.007.263.007.4v52.756l3.76.003c1.997.002 3.994.004 5.991.004 1.148 0 2.296 0 3.445-.002h.057c4.58 0 8.896.85 12.827 2.525 3.887 1.657 7.495 4.164 10.722 7.45 2.129 2.167 3.984 4.602 5.516 7.238 1.478 2.545 2.696 5.348 3.618 8.331.827 2.674 1.358 5.38 1.578 8.045.089 1.08.132 1.98.137 2.837.01 1.762.008 3.552.007 5.284 0 1.357-.001 2.761.003 4.141.007 2.352-.236 4.732-.744 7.277-.998 4.993-2.889 9.65-5.621 13.843-3.059 4.692-6.93 8.448-11.505 11.164-3.492 2.073-7.285 3.434-11.274 4.046-1.617.247-3.136.368-4.642.368l-9.751.002h-60.462v-12.143l.902-.089.09-.01c.078-.008.166-.018.266-.022.057-.002.117-.003.189-.003H165.216c6.19 0 12.38 0 18.57-.003l18.571-.003c11.985 0 21.688.007 30.534.02h.04c5.99 0 10.976-2.14 15.244-6.544 3-3.096 5.111-6.944 6.273-11.438.567-2.194.856-4.446.859-6.693 0-.714.002-1.428.004-2.142.005-2.146.01-4.365-.007-6.545-.044-5.367-1.51-10.296-4.357-14.65-2.212-3.381-5.064-6.003-8.478-7.791-2.149-1.126-4.436-1.83-6.797-2.093-.674-.075-1.427-.114-2.367-.123-.779-.007-1.615-.01-2.631-.01-.669 0-1.337.001-2.006.003l-1.247.002c-1.793.002-3.586.006-5.379.01l-2.14.004v48.712h-11.67l-.299-.348-.006-.007-.026-.03c-.112-.128-.188-.273-.228-.431l-.001-.004-.001-.004c-.023-.093-.031-.172-.036-.23-.004-.052-.005-.092-.005-.12V251.112v-.084l-.001-22.853v-24.57c-1.24-.02-3.622-.037-5.985-.037-1.458 0-2.514.006-3.177.015v47.479l-.001.043v.036l-.001.007c0 .028-.002.054-.004.081l-.006.072-.002.017v.001c-.007.056-.019.135-.05.228-.035.104-.076.179-.107.228l-.187.324-.368.117c-.168.053-.245.078-2.314.101-1.125.013-2.58.02-3.992.02-3.987 0-4.283-.049-4.395-.067l-.84-.136V203.595H179l-.224-.693c-.057-.175-.115-.357-.135-5.294-.003-.807-.016-4.861.05-5.412l.105-.881h7.398v-6.676c0-15.366 0-30.733.002-46.1 0-.164.013-.315.024-.449.004-.052.009-.103.012-.155l.061-.935z" transform="translate(-56 -269.499) translate(-107.557 132.5)"/>
        </g>
    </g>
</svg>
