<svg xmlns="http://www.w3.org/2000/svg" width="393.965" height="245.396" viewBox="0 0 393.965 245.396">
    <defs>
        <style>
            .cls-2{fill:#333}
        </style>
    </defs>
    <g id="Сгруппировать_532" transform="translate(-708.451 -845.369)">
        <g id="Сгруппировать_1" opacity="0.06" transform="rotate(-27 921.778 -686.655)">
            <path id="Объединение_1" d="M16.36 32.522a7.8 7.8 0 0 1-2.3-5.791 7.8 7.8 0 0 1 2.3-5.79 7.947 7.947 0 0 1 5.835-2.282 8 8 0 0 1 5.858 2.27 7.8 7.8 0 0 1 2.3 5.8 7.8 7.8 0 0 1-2.3 5.8 8 8 0 0 1-5.858 2.27 7.947 7.947 0 0 1-5.835-2.277zm2.408-9.464a5.3 5.3 0 0 0-1.3 3.673 5.3 5.3 0 0 0 1.3 3.674 4.377 4.377 0 0 0 3.427 1.452 4.414 4.414 0 0 0 3.438-1.457 5.272 5.272 0 0 0 1.309-3.674 5.273 5.273 0 0 0-1.309-3.673 4.414 4.414 0 0 0-3.438-1.452 4.377 4.377 0 0 0-3.427 1.457zm51.771 11.465v-6.389l-6.011-9.218h3.789l3.883 6.27 3.836-6.27h3.788l-5.963 9.218v6.389zm-9.824 0l-.959-2.644h-6.689l-.982 2.644H48.3l6.03-15.607h4.163L64.5 34.523zm-6.735-5.568h4.864l-2.431-6.717zm-21.05 5.568V18.916h6.151a8.4 8.4 0 0 1 5.976 2.153 7.389 7.389 0 0 1 2.3 5.662 7.367 7.367 0 0 1-2.292 5.651 8.413 8.413 0 0 1-5.987 2.142zm3.32-2.925h2.831a4.663 4.663 0 0 0 3.566-1.4 4.862 4.862 0 0 0 1.321-3.464 4.934 4.934 0 0 0-1.286-3.521 4.7 4.7 0 0 0-3.6-1.368h-2.831zM4.56 34.523V21.841H0v-2.925h12.442v2.925H7.9v12.682zm44.249-22.816a6.592 6.592 0 0 1-1.944-4.891 6.59 6.59 0 0 1 1.944-4.889 7.3 7.3 0 0 1 9.875-.01 6.589 6.589 0 0 1 1.944 4.9 6.584 6.584 0 0 1-1.944 4.9 7.306 7.306 0 0 1-9.875-.009zm2.035-7.992a4.479 4.479 0 0 0-1.1 3.1 4.474 4.474 0 0 0 1.1 3.1 4.038 4.038 0 0 0 5.8 0 4.456 4.456 0 0 0 1.105-3.1 4.461 4.461 0 0 0-1.105-3.1 4.042 4.042 0 0 0-5.8 0zM77.1 13.139a1.576 1.576 0 1 1 1.127.474 1.54 1.54 0 0 1-1.127-.474zm-5.41.257L65.408 4.8v8.6H62.6V.218h2.883l6.1 8.279V.218h2.8V13.4zM34.4 13.4V.218h6.932a3.825 3.825 0 0 1 2.798.982 3.209 3.209 0 0 1 1 2.38 3.111 3.111 0 0 1-.651 2.016A2.734 2.734 0 0 1 42.856 6.6a2.751 2.751 0 0 1 1.8 1.086 3.388 3.388 0 0 1 .731 2.154 3.454 3.454 0 0 1-1.007 2.548 3.819 3.819 0 0 1-2.827 1.012zm2.8-2.431h3.613a1.8 1.8 0 0 0 1.245-.4 1.421 1.421 0 0 0 .454-1.116 1.476 1.476 0 0 0-.454-1.1 1.706 1.706 0 0 0-1.236-.453h-3.614zm0-5.473h3.514a1.561 1.561 0 0 0 1.135-.396 1.353 1.353 0 0 0 .415-1.027 1.377 1.377 0 0 0-.424-1.038 1.557 1.557 0 0 0-1.117-.405h-3.515zM25.952 13.4V2.687H22.1V.218h10.507v2.469h-3.831V13.4zm-6.918 0H13.41v-2.825h2.82V3.039h-2.82V.218h5.624v10.357h2.82V13.4zM0 13.4V.218h6.931a3.827 3.827 0 0 1 2.795.982 3.21 3.21 0 0 1 1 2.38 3.109 3.109 0 0 1-.651 2.016A2.734 2.734 0 0 1 8.452 6.6a2.75 2.75 0 0 1 1.8 1.086 3.385 3.385 0 0 1 .728 2.154 3.454 3.454 0 0 1-1.007 2.548A3.819 3.819 0 0 1 7.148 13.4zm2.8-2.431h3.617a1.8 1.8 0 0 0 1.245-.4 1.42 1.42 0 0 0 .454-1.116 1.474 1.474 0 0 0-.454-1.1A1.706 1.706 0 0 0 6.417 7.9H2.8zm0-5.473h3.518A1.562 1.562 0 0 0 7.445 5.1a1.352 1.352 0 0 0 .415-1.027 1.377 1.377 0 0 0-.424-1.038 1.557 1.557 0 0 0-1.117-.405H2.8z" class="cls-2" transform="translate(56.5 832.5)"/>
            <path id="Объединение_1-2" d="M16.36 32.522a7.8 7.8 0 0 1-2.3-5.791 7.8 7.8 0 0 1 2.3-5.79 7.947 7.947 0 0 1 5.835-2.282 8 8 0 0 1 5.858 2.27 7.8 7.8 0 0 1 2.3 5.8 7.8 7.8 0 0 1-2.3 5.8 8 8 0 0 1-5.858 2.27 7.947 7.947 0 0 1-5.835-2.277zm2.408-9.464a5.3 5.3 0 0 0-1.3 3.673 5.3 5.3 0 0 0 1.3 3.674 4.377 4.377 0 0 0 3.427 1.452 4.414 4.414 0 0 0 3.438-1.457 5.272 5.272 0 0 0 1.309-3.674 5.273 5.273 0 0 0-1.309-3.673 4.414 4.414 0 0 0-3.438-1.452 4.377 4.377 0 0 0-3.427 1.457zm51.771 11.465v-6.389l-6.011-9.218h3.789l3.883 6.27 3.836-6.27h3.788l-5.963 9.218v6.389zm-9.824 0l-.959-2.644h-6.689l-.982 2.644H48.3l6.03-15.607h4.163L64.5 34.523zm-6.735-5.568h4.864l-2.431-6.717zm-21.05 5.568V18.916h6.151a8.4 8.4 0 0 1 5.976 2.153 7.389 7.389 0 0 1 2.3 5.662 7.367 7.367 0 0 1-2.292 5.651 8.413 8.413 0 0 1-5.987 2.142zm3.32-2.925h2.831a4.663 4.663 0 0 0 3.566-1.4 4.862 4.862 0 0 0 1.321-3.464 4.934 4.934 0 0 0-1.286-3.521 4.7 4.7 0 0 0-3.6-1.368h-2.831zM4.56 34.523V21.841H0v-2.925h12.442v2.925H7.9v12.682zm44.249-22.816a6.592 6.592 0 0 1-1.944-4.891 6.59 6.59 0 0 1 1.944-4.889 7.3 7.3 0 0 1 9.875-.01 6.589 6.589 0 0 1 1.944 4.9 6.584 6.584 0 0 1-1.944 4.9 7.306 7.306 0 0 1-9.875-.009zm2.035-7.992a4.479 4.479 0 0 0-1.1 3.1 4.474 4.474 0 0 0 1.1 3.1 4.038 4.038 0 0 0 5.8 0 4.456 4.456 0 0 0 1.105-3.1 4.461 4.461 0 0 0-1.105-3.1 4.042 4.042 0 0 0-5.8 0zM77.1 13.139a1.576 1.576 0 1 1 1.127.474 1.54 1.54 0 0 1-1.127-.474zm-5.41.257L65.408 4.8v8.6H62.6V.218h2.883l6.1 8.279V.218h2.8V13.4zM34.4 13.4V.218h6.932a3.825 3.825 0 0 1 2.798.982 3.209 3.209 0 0 1 1 2.38 3.111 3.111 0 0 1-.651 2.016A2.734 2.734 0 0 1 42.856 6.6a2.751 2.751 0 0 1 1.8 1.086 3.388 3.388 0 0 1 .731 2.154 3.454 3.454 0 0 1-1.007 2.548 3.819 3.819 0 0 1-2.827 1.012zm2.8-2.431h3.613a1.8 1.8 0 0 0 1.245-.4 1.421 1.421 0 0 0 .454-1.116 1.476 1.476 0 0 0-.454-1.1 1.706 1.706 0 0 0-1.236-.453h-3.614zm0-5.473h3.514a1.561 1.561 0 0 0 1.135-.396 1.353 1.353 0 0 0 .415-1.027 1.377 1.377 0 0 0-.424-1.038 1.557 1.557 0 0 0-1.117-.405h-3.515zM25.952 13.4V2.687H22.1V.218h10.507v2.469h-3.831V13.4zm-6.918 0H13.41v-2.825h2.82V3.039h-2.82V.218h5.624v10.357h2.82V13.4zM0 13.4V.218h6.931a3.827 3.827 0 0 1 2.795.982 3.21 3.21 0 0 1 1 2.38 3.109 3.109 0 0 1-.651 2.016A2.734 2.734 0 0 1 8.452 6.6a2.75 2.75 0 0 1 1.8 1.086 3.385 3.385 0 0 1 .728 2.154 3.454 3.454 0 0 1-1.007 2.548A3.819 3.819 0 0 1 7.148 13.4zm2.8-2.431h3.617a1.8 1.8 0 0 0 1.245-.4 1.42 1.42 0 0 0 .454-1.116 1.474 1.474 0 0 0-.454-1.1A1.706 1.706 0 0 0 6.417 7.9H2.8zm0-5.473h3.518A1.562 1.562 0 0 0 7.445 5.1a1.352 1.352 0 0 0 .415-1.027 1.377 1.377 0 0 0-.424-1.038 1.557 1.557 0 0 0-1.117-.405H2.8z" class="cls-2" transform="translate(142.5 832.5)"/>
            <path id="Объединение_1-3" d="M16.36 32.522a7.8 7.8 0 0 1-2.3-5.791 7.8 7.8 0 0 1 2.3-5.79 7.947 7.947 0 0 1 5.835-2.282 8 8 0 0 1 5.858 2.27 7.8 7.8 0 0 1 2.3 5.8 7.8 7.8 0 0 1-2.3 5.8 8 8 0 0 1-5.858 2.27 7.947 7.947 0 0 1-5.835-2.277zm2.408-9.464a5.3 5.3 0 0 0-1.3 3.673 5.3 5.3 0 0 0 1.3 3.674 4.377 4.377 0 0 0 3.427 1.452 4.414 4.414 0 0 0 3.438-1.457 5.272 5.272 0 0 0 1.309-3.674 5.273 5.273 0 0 0-1.309-3.673 4.414 4.414 0 0 0-3.438-1.452 4.377 4.377 0 0 0-3.427 1.457zm51.771 11.465v-6.389l-6.011-9.218h3.789l3.883 6.27 3.836-6.27h3.788l-5.963 9.218v6.389zm-9.824 0l-.959-2.644h-6.689l-.982 2.644H48.3l6.03-15.607h4.163L64.5 34.523zm-6.735-5.568h4.864l-2.431-6.717zm-21.05 5.568V18.916h6.151a8.4 8.4 0 0 1 5.976 2.153 7.389 7.389 0 0 1 2.3 5.662 7.367 7.367 0 0 1-2.292 5.651 8.413 8.413 0 0 1-5.987 2.142zm3.32-2.925h2.831a4.663 4.663 0 0 0 3.566-1.4 4.862 4.862 0 0 0 1.321-3.464 4.934 4.934 0 0 0-1.286-3.521 4.7 4.7 0 0 0-3.6-1.368h-2.831zM4.56 34.523V21.841H0v-2.925h12.442v2.925H7.9v12.682zm44.249-22.816a6.592 6.592 0 0 1-1.944-4.891 6.59 6.59 0 0 1 1.944-4.889 7.3 7.3 0 0 1 9.875-.01 6.589 6.589 0 0 1 1.944 4.9 6.584 6.584 0 0 1-1.944 4.9 7.306 7.306 0 0 1-9.875-.009zm2.035-7.992a4.479 4.479 0 0 0-1.1 3.1 4.474 4.474 0 0 0 1.1 3.1 4.038 4.038 0 0 0 5.8 0 4.456 4.456 0 0 0 1.105-3.1 4.461 4.461 0 0 0-1.105-3.1 4.042 4.042 0 0 0-5.8 0zM77.1 13.139a1.576 1.576 0 1 1 1.127.474 1.54 1.54 0 0 1-1.127-.474zm-5.41.257L65.408 4.8v8.6H62.6V.218h2.883l6.1 8.279V.218h2.8V13.4zM34.4 13.4V.218h6.932a3.825 3.825 0 0 1 2.798.982 3.209 3.209 0 0 1 1 2.38 3.111 3.111 0 0 1-.651 2.016A2.734 2.734 0 0 1 42.856 6.6a2.751 2.751 0 0 1 1.8 1.086 3.388 3.388 0 0 1 .731 2.154 3.454 3.454 0 0 1-1.007 2.548 3.819 3.819 0 0 1-2.827 1.012zm2.8-2.431h3.613a1.8 1.8 0 0 0 1.245-.4 1.421 1.421 0 0 0 .454-1.116 1.476 1.476 0 0 0-.454-1.1 1.706 1.706 0 0 0-1.236-.453h-3.614zm0-5.473h3.514a1.561 1.561 0 0 0 1.135-.396 1.353 1.353 0 0 0 .415-1.027 1.377 1.377 0 0 0-.424-1.038 1.557 1.557 0 0 0-1.117-.405h-3.515zM25.952 13.4V2.687H22.1V.218h10.507v2.469h-3.831V13.4zm-6.918 0H13.41v-2.825h2.82V3.039h-2.82V.218h5.624v10.357h2.82V13.4zM0 13.4V.218h6.931a3.827 3.827 0 0 1 2.795.982 3.21 3.21 0 0 1 1 2.38 3.109 3.109 0 0 1-.651 2.016A2.734 2.734 0 0 1 8.452 6.6a2.75 2.75 0 0 1 1.8 1.086 3.385 3.385 0 0 1 .728 2.154 3.454 3.454 0 0 1-1.007 2.548A3.819 3.819 0 0 1 7.148 13.4zm2.8-2.431h3.617a1.8 1.8 0 0 0 1.245-.4 1.42 1.42 0 0 0 .454-1.116 1.474 1.474 0 0 0-.454-1.1A1.706 1.706 0 0 0 6.417 7.9H2.8zm0-5.473h3.518A1.562 1.562 0 0 0 7.445 5.1a1.352 1.352 0 0 0 .415-1.027 1.377 1.377 0 0 0-.424-1.038 1.557 1.557 0 0 0-1.117-.405H2.8z" class="cls-2" transform="translate(228.5 832.5)"/>
        </g>
        <g id="Сгруппировать_4" opacity="0.02" transform="rotate(-27 827.35 -310.387)">
            <path id="Объединение_1-4" d="M26.835 53.346a12.8 12.8 0 0 1-3.78-9.5 12.794 12.794 0 0 1 3.78-9.5 13.035 13.035 0 0 1 9.571-3.746 13.121 13.121 0 0 1 9.609 3.724 12.789 12.789 0 0 1 3.779 9.518 12.789 12.789 0 0 1-3.779 9.519 13.121 13.121 0 0 1-9.609 3.724 13.035 13.035 0 0 1-9.571-3.739zm3.95-15.524a8.69 8.69 0 0 0-2.129 6.024 8.689 8.689 0 0 0 2.129 6.026 7.18 7.18 0 0 0 5.621 2.381 7.24 7.24 0 0 0 5.64-2.381 8.648 8.648 0 0 0 2.147-6.026 8.65 8.65 0 0 0-2.147-6.024 7.24 7.24 0 0 0-5.64-2.381 7.18 7.18 0 0 0-5.621 2.381zM115.7 56.629v-10.48l-9.86-15.121h6.215l6.369 10.285 6.293-10.285h6.213l-9.781 15.121v10.48zm-16.114 0l-1.572-4.337H87.047l-1.61 4.337H79.22l9.9-25.6h6.829l9.86 25.6zm-11.042-9.135h7.978l-3.988-11.017zm-34.528 9.135v-25.6h10.09a13.785 13.785 0 0 1 9.8 3.531 12.121 12.121 0 0 1 3.778 9.287 12.084 12.084 0 0 1-3.76 9.269 13.8 13.8 0 0 1-9.82 3.513zm5.447-4.8h4.643a7.649 7.649 0 0 0 5.85-2.3 7.975 7.975 0 0 0 2.167-5.682 8.093 8.093 0 0 0-2.11-5.776 7.711 7.711 0 0 0-5.907-2.244h-4.644zm-51.983 4.8v-20.8H0v-4.8h20.408v4.8h-7.442v20.8zM80.062 19.2a10.812 10.812 0 0 1-3.189-8.022 10.81 10.81 0 0 1 3.189-8.019 11.98 11.98 0 0 1 16.2-.017 10.807 10.807 0 0 1 3.189 8.037 10.8 10.8 0 0 1-3.189 8.037 11.984 11.984 0 0 1-16.2-.015zM83.4 6.092a7.347 7.347 0 0 0-1.8 5.088 7.339 7.339 0 0 0 1.8 5.088 6.624 6.624 0 0 0 9.508 0 7.309 7.309 0 0 0 1.812-5.088 7.317 7.317 0 0 0-1.813-5.088 6.63 6.63 0 0 0-9.508 0zm43.065 15.459a2.585 2.585 0 1 1 1.848.777 2.527 2.527 0 0 1-1.849-.777zm-8.874.422l-10.3-14.1v14.1h-4.6V.358h4.729l10.009 13.579V.358h4.6v21.616zm-61.158 0V.358H67.8a6.274 6.274 0 0 1 4.583 1.6 5.263 5.263 0 0 1 1.635 3.9 5.1 5.1 0 0 1-1.068 3.307 4.484 4.484 0 0 1-2.65 1.66 4.512 4.512 0 0 1 2.947 1.782 5.558 5.558 0 0 1 1.2 3.533 5.666 5.666 0 0 1-1.652 4.18 6.265 6.265 0 0 1-4.632 1.653zm4.6-3.987h5.927a2.96 2.96 0 0 0 2.04-.664 2.331 2.331 0 0 0 .745-1.83 2.42 2.42 0 0 0-.745-1.8 2.8 2.8 0 0 0-2.042-.728h-5.925zm0-8.977H66.8a2.56 2.56 0 0 0 1.847-.647 2.219 2.219 0 0 0 .681-1.685 2.259 2.259 0 0 0-.7-1.7A2.554 2.554 0 0 0 66.8 4.31h-5.767zM42.569 21.974V4.407h-6.317V.358h17.233v4.05H47.2v17.566zm-11.348 0H22v-4.628h4.625V4.985H22V.358h9.225v16.988h4.625v4.627zM0 21.974V.358h11.37a6.277 6.277 0 0 1 4.584 1.6 5.265 5.265 0 0 1 1.635 3.9 5.1 5.1 0 0 1-1.069 3.314 4.484 4.484 0 0 1-2.656 1.653 4.51 4.51 0 0 1 2.947 1.782 5.552 5.552 0 0 1 1.2 3.533 5.666 5.666 0 0 1-1.652 4.18 6.264 6.264 0 0 1-4.632 1.653zm4.6-3.987h5.927a2.96 2.96 0 0 0 2.042-.664 2.329 2.329 0 0 0 .745-1.83 2.418 2.418 0 0 0-.745-1.8 2.8 2.8 0 0 0-2.042-.728H4.6zm0-8.977h5.764a2.562 2.562 0 0 0 1.847-.647 2.218 2.218 0 0 0 .68-1.685 2.258 2.258 0 0 0-.7-1.7 2.553 2.553 0 0 0-1.832-.664H4.6z" transform="translate(111.566 832.5)"/>
            <path id="Объединение_1-5" d="M26.835 53.346a12.8 12.8 0 0 1-3.78-9.5 12.794 12.794 0 0 1 3.78-9.5 13.035 13.035 0 0 1 9.571-3.746 13.121 13.121 0 0 1 9.609 3.724 12.789 12.789 0 0 1 3.779 9.518 12.789 12.789 0 0 1-3.779 9.519 13.121 13.121 0 0 1-9.609 3.724 13.035 13.035 0 0 1-9.571-3.739zm3.95-15.524a8.69 8.69 0 0 0-2.129 6.024 8.689 8.689 0 0 0 2.129 6.026 7.18 7.18 0 0 0 5.621 2.381 7.24 7.24 0 0 0 5.64-2.381 8.648 8.648 0 0 0 2.147-6.026 8.65 8.65 0 0 0-2.147-6.024 7.24 7.24 0 0 0-5.64-2.381 7.18 7.18 0 0 0-5.621 2.381zM115.7 56.629v-10.48l-9.86-15.121h6.215l6.369 10.285 6.293-10.285h6.213l-9.781 15.121v10.48zm-16.114 0l-1.572-4.337H87.047l-1.61 4.337H79.22l9.9-25.6h6.829l9.86 25.6zm-11.042-9.135h7.978l-3.988-11.017zm-34.528 9.135v-25.6h10.09a13.785 13.785 0 0 1 9.8 3.531 12.121 12.121 0 0 1 3.778 9.287 12.084 12.084 0 0 1-3.76 9.269 13.8 13.8 0 0 1-9.82 3.513zm5.447-4.8h4.643a7.649 7.649 0 0 0 5.85-2.3 7.975 7.975 0 0 0 2.167-5.682 8.093 8.093 0 0 0-2.11-5.776 7.711 7.711 0 0 0-5.907-2.244h-4.644zm-51.983 4.8v-20.8H0v-4.8h20.408v4.8h-7.442v20.8zM80.062 19.2a10.812 10.812 0 0 1-3.189-8.022 10.81 10.81 0 0 1 3.189-8.019 11.98 11.98 0 0 1 16.2-.017 10.807 10.807 0 0 1 3.189 8.037 10.8 10.8 0 0 1-3.189 8.037 11.984 11.984 0 0 1-16.2-.015zM83.4 6.092a7.347 7.347 0 0 0-1.8 5.088 7.339 7.339 0 0 0 1.8 5.088 6.624 6.624 0 0 0 9.508 0 7.309 7.309 0 0 0 1.812-5.088 7.317 7.317 0 0 0-1.813-5.088 6.63 6.63 0 0 0-9.508 0zm43.065 15.459a2.585 2.585 0 1 1 1.848.777 2.527 2.527 0 0 1-1.849-.777zm-8.874.422l-10.3-14.1v14.1h-4.6V.358h4.729l10.009 13.579V.358h4.6v21.616zm-61.158 0V.358H67.8a6.274 6.274 0 0 1 4.583 1.6 5.263 5.263 0 0 1 1.635 3.9 5.1 5.1 0 0 1-1.068 3.307 4.484 4.484 0 0 1-2.65 1.66 4.512 4.512 0 0 1 2.947 1.782 5.558 5.558 0 0 1 1.2 3.533 5.666 5.666 0 0 1-1.652 4.18 6.265 6.265 0 0 1-4.632 1.653zm4.6-3.987h5.927a2.96 2.96 0 0 0 2.04-.664 2.331 2.331 0 0 0 .745-1.83 2.42 2.42 0 0 0-.745-1.8 2.8 2.8 0 0 0-2.042-.728h-5.925zm0-8.977H66.8a2.56 2.56 0 0 0 1.847-.647 2.219 2.219 0 0 0 .681-1.685 2.259 2.259 0 0 0-.7-1.7A2.554 2.554 0 0 0 66.8 4.31h-5.767zM42.569 21.974V4.407h-6.317V.358h17.233v4.05H47.2v17.566zm-11.348 0H22v-4.628h4.625V4.985H22V.358h9.225v16.988h4.625v4.627zM0 21.974V.358h11.37a6.277 6.277 0 0 1 4.584 1.6 5.265 5.265 0 0 1 1.635 3.9 5.1 5.1 0 0 1-1.069 3.314 4.484 4.484 0 0 1-2.656 1.653 4.51 4.51 0 0 1 2.947 1.782 5.552 5.552 0 0 1 1.2 3.533 5.666 5.666 0 0 1-1.652 4.18 6.264 6.264 0 0 1-4.632 1.653zm4.6-3.987h5.927a2.96 2.96 0 0 0 2.042-.664 2.329 2.329 0 0 0 .745-1.83 2.418 2.418 0 0 0-.745-1.8 2.8 2.8 0 0 0-2.042-.728H4.6zm0-8.977h5.764a2.562 2.562 0 0 0 1.847-.647 2.218 2.218 0 0 0 .68-1.685 2.258 2.258 0 0 0-.7-1.7 2.553 2.553 0 0 0-1.832-.664H4.6z" transform="translate(252.633 832.5)"/>
            <path id="Объединение_1-6" d="M26.835 53.346a12.8 12.8 0 0 1-3.78-9.5 12.794 12.794 0 0 1 3.78-9.5 13.035 13.035 0 0 1 9.571-3.746 13.121 13.121 0 0 1 9.609 3.724 12.789 12.789 0 0 1 3.779 9.518 12.789 12.789 0 0 1-3.779 9.519 13.121 13.121 0 0 1-9.609 3.724 13.035 13.035 0 0 1-9.571-3.739zm3.95-15.524a8.69 8.69 0 0 0-2.129 6.024 8.689 8.689 0 0 0 2.129 6.026 7.18 7.18 0 0 0 5.621 2.381 7.24 7.24 0 0 0 5.64-2.381 8.648 8.648 0 0 0 2.147-6.026 8.65 8.65 0 0 0-2.147-6.024 7.24 7.24 0 0 0-5.64-2.381 7.18 7.18 0 0 0-5.621 2.381zM115.7 56.629v-10.48l-9.86-15.121h6.215l6.369 10.285 6.293-10.285h6.213l-9.781 15.121v10.48zm-16.114 0l-1.572-4.337H87.047l-1.61 4.337H79.22l9.9-25.6h6.829l9.86 25.6zm-11.042-9.135h7.978l-3.988-11.017zm-34.528 9.135v-25.6h10.09a13.785 13.785 0 0 1 9.8 3.531 12.121 12.121 0 0 1 3.778 9.287 12.084 12.084 0 0 1-3.76 9.269 13.8 13.8 0 0 1-9.82 3.513zm5.447-4.8h4.643a7.649 7.649 0 0 0 5.85-2.3 7.975 7.975 0 0 0 2.167-5.682 8.093 8.093 0 0 0-2.11-5.776 7.711 7.711 0 0 0-5.907-2.244h-4.644zm-51.983 4.8v-20.8H0v-4.8h20.408v4.8h-7.442v20.8zM80.062 19.2a10.812 10.812 0 0 1-3.189-8.022 10.81 10.81 0 0 1 3.189-8.019 11.98 11.98 0 0 1 16.2-.017 10.807 10.807 0 0 1 3.189 8.037 10.8 10.8 0 0 1-3.189 8.037 11.984 11.984 0 0 1-16.2-.015zM83.4 6.092a7.347 7.347 0 0 0-1.8 5.088 7.339 7.339 0 0 0 1.8 5.088 6.624 6.624 0 0 0 9.508 0 7.309 7.309 0 0 0 1.812-5.088 7.317 7.317 0 0 0-1.813-5.088 6.63 6.63 0 0 0-9.508 0zm43.065 15.459a2.585 2.585 0 1 1 1.848.777 2.527 2.527 0 0 1-1.849-.777zm-8.874.422l-10.3-14.1v14.1h-4.6V.358h4.729l10.009 13.579V.358h4.6v21.616zm-61.158 0V.358H67.8a6.274 6.274 0 0 1 4.583 1.6 5.263 5.263 0 0 1 1.635 3.9 5.1 5.1 0 0 1-1.068 3.307 4.484 4.484 0 0 1-2.65 1.66 4.512 4.512 0 0 1 2.947 1.782 5.558 5.558 0 0 1 1.2 3.533 5.666 5.666 0 0 1-1.652 4.18 6.265 6.265 0 0 1-4.632 1.653zm4.6-3.987h5.927a2.96 2.96 0 0 0 2.04-.664 2.331 2.331 0 0 0 .745-1.83 2.42 2.42 0 0 0-.745-1.8 2.8 2.8 0 0 0-2.042-.728h-5.925zm0-8.977H66.8a2.56 2.56 0 0 0 1.847-.647 2.219 2.219 0 0 0 .681-1.685 2.259 2.259 0 0 0-.7-1.7A2.554 2.554 0 0 0 66.8 4.31h-5.767zM42.569 21.974V4.407h-6.317V.358h17.233v4.05H47.2v17.566zm-11.348 0H22v-4.628h4.625V4.985H22V.358h9.225v16.988h4.625v4.627zM0 21.974V.358h11.37a6.277 6.277 0 0 1 4.584 1.6 5.265 5.265 0 0 1 1.635 3.9 5.1 5.1 0 0 1-1.069 3.314 4.484 4.484 0 0 1-2.656 1.653 4.51 4.51 0 0 1 2.947 1.782 5.552 5.552 0 0 1 1.2 3.533 5.666 5.666 0 0 1-1.652 4.18 6.264 6.264 0 0 1-4.632 1.653zm4.6-3.987h5.927a2.96 2.96 0 0 0 2.042-.664 2.329 2.329 0 0 0 .745-1.83 2.418 2.418 0 0 0-.745-1.8 2.8 2.8 0 0 0-2.042-.728H4.6zm0-8.977h5.764a2.562 2.562 0 0 0 1.847-.647 2.218 2.218 0 0 0 .68-1.685 2.258 2.258 0 0 0-.7-1.7 2.553 2.553 0 0 0-1.832-.664H4.6z" transform="translate(393.699 832.5)"/>
        </g>
    </g>
</svg>
