<svg xmlns="http://www.w3.org/2000/svg" width="99.824" height="42.804" viewBox="0 0 99.824 42.804">
  <defs>
    <style>
      .cls-1 {
        fill: #333;
        opacity: 0.3;
      }
    </style>
  </defs>
  <path id="Объединение_5" data-name="Объединение 5" class="cls-1" d="M20.459,40a9.511,9.511,0,0,1-2.882-7.123,9.51,9.51,0,0,1,2.882-7.121,10.028,10.028,0,0,1,7.3-2.807,10.1,10.1,0,0,1,7.326,2.792,9.506,9.506,0,0,1,2.881,7.136,9.506,9.506,0,0,1-2.881,7.137A10.1,10.1,0,0,1,27.756,42.8,10.028,10.028,0,0,1,20.459,40ZM23.47,28.358a6.451,6.451,0,0,0-1.623,4.517,6.45,6.45,0,0,0,1.623,4.518,5.517,5.517,0,0,0,4.286,1.785,5.564,5.564,0,0,0,4.3-1.785,6.42,6.42,0,0,0,1.637-4.518,6.421,6.421,0,0,0-1.637-4.517,5.564,5.564,0,0,0-4.3-1.785A5.517,5.517,0,0,0,23.47,28.358Zm64.742,14.1V34.6L80.7,23.264h4.738l4.855,7.711,4.8-7.711h4.737L92.367,34.6v7.858Zm-12.285,0-1.2-3.252H66.364l-1.228,3.252H60.4l7.546-19.195h5.206l7.517,19.195ZM67.5,35.61h6.083l-3.041-8.261ZM41.181,42.459V23.264h7.693a10.614,10.614,0,0,1,7.473,2.647,9.013,9.013,0,0,1,2.881,6.963,8.986,8.986,0,0,1-2.867,6.95,10.626,10.626,0,0,1-7.487,2.634Zm4.152-3.6h3.54a5.789,5.789,0,0,0,6.112-5.986,6.01,6.01,0,0,0-1.609-4.331,5.932,5.932,0,0,0-4.5-1.683h-3.54ZM5.7,42.459v-15.6H0v-3.6H15.559v3.6H9.885v15.6ZM61.038,14.4a8.037,8.037,0,0,1-2.431-6.015A8.035,8.035,0,0,1,61.038,2.37a9.247,9.247,0,0,1,12.349-.013,8.033,8.033,0,0,1,2.431,6.026,8.028,8.028,0,0,1-2.431,6.026A9.25,9.25,0,0,1,61.038,14.4Zm2.545-9.83a5.454,5.454,0,0,0-1.371,3.815A5.448,5.448,0,0,0,63.583,12.2a5.11,5.11,0,0,0,7.249,0,5.426,5.426,0,0,0,1.382-3.815,5.432,5.432,0,0,0-1.382-3.815,5.114,5.114,0,0,0-7.249,0ZM96.415,16.159a1.915,1.915,0,0,1,0-2.769,1.993,1.993,0,0,1,2.817,0,1.915,1.915,0,0,1,0,2.769,1.994,1.994,0,0,1-2.817,0Zm-6.765.316L81.8,5.906V16.475H78.289V.268h3.605l7.63,10.181V.268h3.507V16.475Zm-46.626,0V.268h8.669a4.832,4.832,0,0,1,3.494,1.2A3.914,3.914,0,0,1,56.433,4.4a3.784,3.784,0,0,1-.814,2.479,3.427,3.427,0,0,1-2.026,1.239,3.451,3.451,0,0,1,2.247,1.336,4.123,4.123,0,0,1,.914,2.649,4.211,4.211,0,0,1-1.26,3.134,4.823,4.823,0,0,1-3.532,1.24Zm3.507-2.99H51.05a2.282,2.282,0,0,0,1.557-.5,1.733,1.733,0,0,0,.568-1.372,1.8,1.8,0,0,0-.568-1.349,2.155,2.155,0,0,0-1.557-.546H46.531Zm0-6.731h4.395a1.972,1.972,0,0,0,1.408-.485,1.65,1.65,0,0,0,.519-1.263,1.68,1.68,0,0,0-.53-1.277,1.966,1.966,0,0,0-1.4-.5H46.531Zm-14.077,9.72V3.3H27.638V.268H40.777V3.3H35.985V16.475Zm-8.651,0H16.77V13.006H20.3V3.738H16.77V.268H23.8V13.006h3.526v3.469Zm-23.8,0V.268H8.668a4.834,4.834,0,0,1,3.495,1.2A3.916,3.916,0,0,1,13.409,4.4a3.782,3.782,0,0,1-.815,2.479A3.427,3.427,0,0,1,10.57,8.116a3.449,3.449,0,0,1,2.247,1.336,4.119,4.119,0,0,1,.914,2.649,4.211,4.211,0,0,1-1.26,3.134,4.823,4.823,0,0,1-3.532,1.24Zm3.507-2.99H8.025a2.281,2.281,0,0,0,1.557-.5,1.732,1.732,0,0,0,.568-1.372,1.8,1.8,0,0,0-.568-1.349,2.154,2.154,0,0,0-1.557-.546H3.507Zm0-6.731H7.9A1.973,1.973,0,0,0,9.31,6.27a1.649,1.649,0,0,0,.519-1.263A1.679,1.679,0,0,0,9.3,3.73a1.966,1.966,0,0,0-1.4-.5H3.507Z" transform="translate(0 0)"/>
</svg>
