<svg xmlns="http://www.w3.org/2000/svg" width="33" height="33" viewBox="0 0 33 33">
    <defs>
        <style>
            .cls-1{fill:#fe0}
        </style>
    </defs>
    <g id="Сгруппировать_930" transform="translate(-434.579 -1845.867)">
        <path id="Контур_6522" d="M36.98 13.777a12.111 12.111 0 0 0-.767-4.005 8.437 8.437 0 0 0-4.826-4.826 12.111 12.111 0 0 0-4.005-.767c-1.76-.08-2.322-.1-6.8-.1s-5.043.019-6.8.1a12.111 12.111 0 0 0-4.005.767 8.437 8.437 0 0 0-4.831 4.825 12.111 12.111 0 0 0-.767 4.005c-.08 1.76-.1 2.322-.1 6.8s.019 5.043.1 6.8a12.111 12.111 0 0 0 .767 4.005 8.437 8.437 0 0 0 4.826 4.826 12.11 12.11 0 0 0 4.005.767c1.76.08 2.322.1 6.8.1s5.043-.019 6.8-.1a12.11 12.11 0 0 0 4.005-.767 8.437 8.437 0 0 0 4.826-4.826 12.111 12.111 0 0 0 .767-4.005c.08-1.76.1-2.322.1-6.8s-.014-5.04-.095-6.799zm-16.4 15.276a8.473 8.473 0 1 1 8.473-8.473 8.473 8.473 0 0 1-8.474 8.472zm8.808-15.3a1.98 1.98 0 1 1 1.98-1.98 1.98 1.98 0 0 1-1.981 1.979z" class="cls-1" transform="translate(430.5 1841.788)"/>
        <circle id="Эллипс_58" cx="5.5" cy="5.5" r="5.5" class="cls-1" transform="translate(445.579 1856.867)"/>
    </g>
</svg>
