<svg xmlns="http://www.w3.org/2000/svg" width="179.864" height="75.448" viewBox="0 0 179.864 75.448">
    <defs>
        <style>
            .cls-1{fill:#fff}.cls-2{fill:#fe0}
        </style>
    </defs>
    <g id="Сгруппировать_686" transform="translate(-1331.938 -377.397)">
        <path id="Контур_6296" d="M1348.263 407.595h-16.087v-29.643h15.6a8.609 8.609 0 0 1 6.288 2.2 7.219 7.219 0 0 1 2.243 5.353 7 7 0 0 1-1.465 4.534 6.153 6.153 0 0 1-3.645 2.267 6.192 6.192 0 0 1 4.044 2.444 7.617 7.617 0 0 1 1.645 4.845 7.765 7.765 0 0 1-2.267 5.732 8.6 8.6 0 0 1-6.356 2.268zm-1.868-17.778a3.519 3.519 0 0 0 2.534-.888 3.045 3.045 0 0 0 .934-2.31 3.1 3.1 0 0 0-.954-2.335 3.507 3.507 0 0 0-2.514-.91h-7.908v6.444zm.223 12.31a4.058 4.058 0 0 0 2.8-.911 3.192 3.192 0 0 0 1.022-2.511 3.316 3.316 0 0 0-1.022-2.467 3.84 3.84 0 0 0-2.8-1h-8.132v6.886z" class="cls-1" transform="translate(-.028 -.065)"/>
        <path id="Контур_6297" d="M1403.51 407.595h-6.356v-24.089h-8.666v-5.554h23.643v5.554h-8.622z" class="cls-1" transform="translate(-6.606 -.065)"/>
        <path id="Контур_6298" d="M1435.925 407.595h-16.088v-29.643h15.6a8.608 8.608 0 0 1 6.287 2.2 7.217 7.217 0 0 1 2.243 5.353 6.992 6.992 0 0 1-1.465 4.534 6.151 6.151 0 0 1-3.644 2.267 6.188 6.188 0 0 1 4.043 2.444 7.612 7.612 0 0 1 1.644 4.845 7.762 7.762 0 0 1-2.266 5.732 8.6 8.6 0 0 1-6.354 2.268zm-1.868-17.778a3.518 3.518 0 0 0 2.535-.888 3.044 3.044 0 0 0 .933-2.31 3.1 3.1 0 0 0-.953-2.335 3.511 3.511 0 0 0-2.515-.91h-7.908v6.444zm.223 12.31a4.058 4.058 0 0 0 2.8-.911 3.191 3.191 0 0 0 1.022-2.511 3.314 3.314 0 0 0-1.022-2.467 3.84 3.84 0 0 0-2.8-1h-8.131v6.886z" class="cls-1" transform="translate(-10.268 -.065)"/>
        <path id="Контур_6299" d="M1467.053 408.061a15.1 15.1 0 0 1-11.089-4.331 16.011 16.011 0 0 1 0-22 16.44 16.44 0 0 1 22.221-.024 16.068 16.068 0 0 1 0 22.043 15.206 15.206 0 0 1-11.132 4.312zm-6.511-8.355a9.091 9.091 0 0 0 13.045 0 11.031 11.031 0 0 0 0-13.954 9.1 9.1 0 0 0-13.045 0 11.1 11.1 0 0 0 0 13.954z" class="cls-1" transform="translate(-13.976)"/>
        <path id="Контур_6300" d="M1518.221 407.595h-6.088L1498 388.263v19.331h-6.312v-29.642h6.488l13.732 18.621v-18.621h6.311z" class="cls-1" transform="translate(-18.66 -.065)"/>
        <path id="Контур_6301" d="M1533.551 410.049a3.541 3.541 0 1 1 1.066-2.534 3.463 3.463 0 0 1-1.066 2.534z" class="cls-1" transform="translate(-22.834 -3.098)"/>
        <path id="Контур_6302" d="M1379 401.249v-23.3h-12.656v6.351h6.345v16.952h-6.345v6.346h19v-6.346z" class="cls-1" transform="translate(-4.019 -.065)"/>
        <g id="Сгруппировать_684" transform="translate(1331.938 419.904)">
            <path id="Контур_6303" d="M1355.25 458.467h-23.311v-32.941h23.311v6.174h-16.3v6.964h15.95v6.173h-15.952v7.457h16.3z" class="cls-2" transform="translate(-1331.938 -425.526)"/>
            <path id="Контур_6304" d="M1394.525 458.467h-8.4l-8.246-12.05-8.3 12.05h-8.346l11.951-16.891-11.21-16.05h8.346l7.557 11.261 7.457-11.261h8.445l-11.21 16z" class="cls-2" transform="translate(-1335.36 -425.526)"/>
            <path id="Контур_6305" d="M1410.022 458.467h-7.013v-32.941h15.409a10.774 10.774 0 0 1 8.124 3.037 11.182 11.182 0 0 1-.025 15.137 10.744 10.744 0 0 1-8.1 3.062h-8.4zm7.457-17.879a5.036 5.036 0 0 0 3.482-1.21 4.529 4.529 0 0 0 0-6.469 5.04 5.04 0 0 0-3.482-1.21h-7.457v8.889z" class="cls-2" transform="translate(-1340.24 -425.526)"/>
            <path id="Контур_6306" d="M1461.772 458.467h-23.311v-32.941h23.311v6.174h-16.3v6.964h15.952v6.173h-15.952v7.457h16.3z" class="cls-2" transform="translate(-1344.38 -425.526)"/>
            <path id="Контур_6307" d="M1498.29 458.467h-8.05l-6.47-11.7h-5.136v11.7h-7.013v-32.941h15.408a10.966 10.966 0 0 1 8.075 2.963 10.312 10.312 0 0 1 2.988 7.654 9.92 9.92 0 0 1-2.1 6.569 9.2 9.2 0 0 1-5.111 3.209zm-12.3-17.879a5.208 5.208 0 0 0 3.557-1.21 4.477 4.477 0 0 0 0-6.469 5.212 5.212 0 0 0-3.557-1.21h-7.358v8.889z" class="cls-2" transform="translate(-1348.254 -425.526)"/>
            <path id="Контур_6308" d="M1522.534 458.467h-7.062V431.7h-9.63v-6.173h26.273v6.173h-9.581z" class="cls-2" transform="translate(-1352.251 -425.526)"/>
        </g>
    </g>
</svg>
