<svg xmlns="http://www.w3.org/2000/svg" width="380.447" height="378.895" viewBox="0 0 380.447 378.895">
    <g opacity="0.02">
        <g>
            <g>
                <path d="M250.169 162.342a113.877 113.877 0 0 0-.725-27.531l20.85-9.293a137.336 137.336 0 0 0-25.172-56.533l-20.864 9.287a114.251 114.251 0 0 0-19.975-18.949l8.179-21.308a137.953 137.953 0 0 0-57.771-22.2l-8.186 21.329a113.876 113.876 0 0 0-27.531.725l-9.239-20.748a137.848 137.848 0 0 0-56.478 25.317l9.177 20.611a114.061 114.061 0 0 0-18.962 19.975l-21.254-8.152a135.494 135.494 0 0 0-14.45 27.607A139.482 139.482 0 0 0 0 132.616l21.308 8.179a113.876 113.876 0 0 0 .725 27.531l-20.85 9.287a137.229 137.229 0 0 0 25.179 56.533l20.85-9.287a113.84 113.84 0 0 0 19.982 18.956l-8.179 21.322a137.955 137.955 0 0 0 57.771 22.2l8.186-21.329a114.223 114.223 0 0 0 27.531-.732l9.239 20.741a137.835 137.835 0 0 0 56.485-25.317l-9.184-20.611a114.073 114.073 0 0 0 18.963-19.975l21.24 8.151a135.619 135.619 0 0 0 14.45-27.6 137.992 137.992 0 0 0 7.789-30.15zm-53.7 1.327a61.929 61.929 0 1 1-29.056-65.307 61.981 61.981 0 0 1 29.061 65.307z" transform="translate(0 -.114) translate(0 107.49) translate(0 -15.816)"/>
            </g>
        </g>
        <g>
            <g>
                <path d="M179.352 84.1A66.558 66.558 0 0 0 178.2 72l15.981-9.232a83.882 83.882 0 0 0-22.068-38.3l-16.013 9.25a65.846 65.846 0 0 0-20.946-12.077V3.157a81.783 81.783 0 0 0-44.2 0v18.491A66.049 66.049 0 0 0 70 33.725l-16.029-9.253A84.064 84.064 0 0 0 31.9 62.774l15.988 9.232a63.889 63.889 0 0 0 0 24.194L31.9 105.432a84.029 84.029 0 0 0 22.068 38.3l16.022-9.252a65.92 65.92 0 0 0 20.946 12.077v18.491a81.783 81.783 0 0 0 44.2 0v-18.49a65.974 65.974 0 0 0 20.946-12.077l16.022 9.252a83.882 83.882 0 0 0 22.068-38.3L178.2 96.2a66.087 66.087 0 0 0 1.152-12.1zm-61.442 30.578a30.959 30.959 0 1 1 25.7-25.637 30.986 30.986 0 0 1-25.7 25.637z" transform="translate(0 -.114) translate(218.165 .114) translate(-31.903 -.114)"/>
            </g>
        </g>
    </g>
</svg>
